Coordinates
version=1
nRows=5
nColumns=40
inDegrees=yes

Units are S.I. units (second, meters, Newtons, ...)
Angles are in degrees.

endheader
time	pelvis_tilt	pelvis_list	pelvis_rotation	pelvis_tx	pelvis_ty	pelvis_tz	hip_flexion_r	hip_adduction_r	hip_rotation_r	knee_angle_r	knee_angle_r_beta	ankle_angle_r	subtalar_angle_r	mtp_angle_r	hip_flexion_l	hip_adduction_l	hip_rotation_l	knee_angle_l	knee_angle_l_beta	ankle_angle_l	subtalar_angle_l	mtp_angle_l	lumbar_extension	lumbar_bending	lumbar_rotation	arm_flex_r	arm_add_r	arm_rot_r	elbow_flex_r	pro_sup_r	wrist_flex_r	wrist_dev_r	arm_flex_l	arm_add_l	arm_rot_l	elbow_flex_l	pro_sup_l	wrist_flex_l	wrist_dev_l
     55.77228571	     -7.58226600	     -5.41611699	      5.62900698	      0.87353813	      0.91597720	      0.48048280	      6.38942966	      3.13162973	    -14.53012341	     15.67738011	     15.67738011	     18.26802570	     -1.00372535	     -1.36166530	     34.04901199	     -6.05967698	      0.85709419	     19.47584509	     19.47584509	      4.28432702	     -8.79892397	      6.02687570	     -9.28970890	      4.75118203	      3.05397219	     43.36020199	    -14.97735492	      2.95501088	    104.31700399	     43.89394494	      0.00000000	      0.00000000	    -10.19726356	     -7.57848537	     -2.74618514	     28.28043120	     45.48897494	      0.00000000	      0.00000000
     55.78457143	     -7.55161684	     -5.40213615	      5.54405966	      0.87524903	      0.91488344	      0.47867038	      5.82043614	      3.04621295	    -14.33369443	     15.74768924	     15.74768924	     18.67126483	     -1.01182797	     -1.40971057	     33.81777378	     -6.03471886	      0.37780829	     20.11199565	     20.11199565	      3.73538462	     -9.14100723	      5.92764787	     -9.11932122	      4.67571677	      3.05158308	     42.86362030	    -14.60753977	      3.25153697	    104.39841696	     43.88451964	      0.00000000	      0.00000000	    -10.00792797	     -7.66835167	     -2.71501878	     28.32655464	     45.48853594	      0.00000000	      0.00000000
     55.79685714	     -7.48057465	     -5.50991535	      5.44576941	      0.87709668	      0.91377559	      0.47686240	      5.27724839	      3.08722657	    -14.09805375	     15.97739434	     15.97739434	     19.45182656	     -1.00281533	     -0.29205520	     33.46951945	     -6.15856119	      0.03690518	     20.56157254	     20.56157254	      1.97682320	     -9.84564243	      2.48136328	     -8.99812886	      4.73042643	      3.04231071	     42.26783975	    -14.52551603	      3.99135556	    104.67987893	     43.94403137	      0.00000000	      0.00000000	     -9.81942955	     -7.82148468	     -2.10944795	     28.42619133	     45.42170325	      0.00000000	      0.00000000
     55.80914286	     -7.41565544	     -5.45921508	      5.33671557	      0.87890693	      0.91302145	      0.47488656	      4.73050461	      2.92251882	    -13.90438596	     16.16965920	     16.16965920	     19.73478756	     -1.00805951	     -0.36869968	     33.18308880	     -6.10917670	     -0.19492369	     21.28834712	     21.28834712	      1.73401910	    -10.16282614	      2.40648790	     -8.89073831	      4.60135272	      3.03480339	     41.47489360	    -14.18669171	      4.26380765	    104.52285171	     43.94124844	      0.00000000	      0.00000000	     -9.45688211	     -7.93205968	     -2.09741151	     28.54595547	     45.42719816	      0.00000000	      0.00000000
     55.82142857	     -7.33243126	     -5.43956057	      5.23916116	      0.88066299	      0.91250897	      0.47286226	      4.24660561	      2.76818614	    -13.72687085	     16.49683377	     16.49683377	     19.96945691	     -1.06440296	     -0.44624335	     32.90946858	     -6.08570812	     -0.30180072	     22.05705646	     22.05705646	      1.66869345	    -10.44995567	      2.22714451	     -8.83393666	      4.47993930	      2.97443046	     40.54184298	    -13.90830577	      4.56010896	    104.26789993	     43.93961437	      0.00000000	      0.00000000	     -9.00527876	     -8.03343494	     -2.08593081	     28.68958957	     45.43401159	      0.00000000	      0.00000000
